<svg xmlns="http://www.w3.org/2000/svg" xmlns:xlink="http://www.w3.org/1999/xlink" version="1.1" x="0px" y="0px" viewBox="0 0 512 640" style="enable-background:new 0 0 512 512;" xml:space="preserve"><g><path d="M501.1,257.8c-9.1-12.7-23.2-19.9-38.8-19.9H179.8c-17,0-30.8-13.8-30.8-30.8v-20.7c15.4-5.1,29.5-13.7,41.1-25.3   c24.3-24.3,35.1-59,28.9-92.9c-0.8-4.1-3.9-7.3-8-8c-33.9-6.2-68.6,4.6-92.9,28.9c-2.4,2.4-4.6,4.8-6.7,7.4   c-2.1-2.6-4.4-5.1-6.7-7.4C80.3,64.8,45.5,54,11.7,60.2c-4.1,0.8-7.3,3.9-8,8c-6.2,33.9,4.6,68.6,28.9,92.9   c10.9,10.9,24,19.2,38.4,24.4v43.8c0,86.4,49.7,165,127.2,202.2c-0.8,9.6,0,19.4,2.5,28.9c0.9,3.5,3.6,6.2,7.1,7.1   c7.2,1.9,14.5,2.9,21.8,2.9c18.4,0,36.5-6,51.3-17.3c4.8,0.3,9.6,0.5,14.2,0.5c96.3,0,181.7-61.3,212.5-152.5   C512.6,286.2,510.2,270.5,501.1,257.8z M218.7,449.4c-3.1-18.5,1.9-37.6,13.8-52c0.1-0.1,0.2-0.2,0.3-0.4c0.3-0.4,0.6-0.7,0.9-1   c0.2-0.3,0.5-0.5,0.7-0.8c0.2-0.3,0.5-0.5,0.7-0.8c0.5-0.5,0.9-1,1.4-1.4c0,0,0.1-0.1,0.1-0.1c14.8-14.8,36.1-21.5,56.6-18   c3.5,20.5-3.1,41.8-18,56.6c-0.6,0.6-1.2,1.2-1.8,1.7c-0.1,0.1-0.2,0.2-0.3,0.3c-0.6,0.6-1.3,1.1-1.9,1.7   C256.7,447.4,237.4,452.6,218.7,449.4z M488.6,294.7c-27.6,81.7-103.2,137-189.1,138.8c0.1-0.2,0.2-0.3,0.3-0.5   c0.2-0.3,0.3-0.5,0.5-0.8c0.3-0.5,0.6-1,0.9-1.4c0.2-0.3,0.3-0.5,0.5-0.8c0.3-0.5,0.7-1.1,1-1.6c0.1-0.2,0.2-0.4,0.3-0.6   c0.4-0.7,0.8-1.5,1.2-2.2c0.1-0.1,0.2-0.3,0.2-0.4c0.3-0.6,0.6-1.2,0.9-1.8c0.1-0.3,0.2-0.5,0.4-0.8c0.2-0.5,0.5-1,0.7-1.6   c0.1-0.3,0.2-0.6,0.4-0.8c0.2-0.5,0.5-1.1,0.7-1.6c0.1-0.3,0.2-0.5,0.3-0.8c0.3-0.7,0.5-1.3,0.8-2c0-0.1,0.1-0.2,0.1-0.4   c0.3-0.8,0.6-1.6,0.9-2.4c0.1-0.2,0.1-0.4,0.2-0.7c0.2-0.6,0.4-1.2,0.6-1.8c0.1-0.3,0.2-0.6,0.3-0.8c0.2-0.5,0.3-1.1,0.5-1.6   c0.1-0.3,0.2-0.6,0.2-0.9c0.2-0.6,0.3-1.2,0.4-1.7c0.1-0.2,0.1-0.5,0.2-0.7c0.2-0.8,0.4-1.7,0.5-2.5c0,0,0,0,0,0   c0.2-0.8,0.3-1.6,0.5-2.5c0-0.3,0.1-0.5,0.1-0.8c0.1-0.6,0.2-1.2,0.3-1.7c0-0.3,0.1-0.6,0.1-0.9c0.1-0.6,0.1-1.1,0.2-1.7   c0-0.3,0.1-0.6,0.1-0.9c0.1-0.6,0.1-1.2,0.2-1.9c0-0.2,0-0.4,0.1-0.7c0.1-0.8,0.1-1.7,0.1-2.5c0-0.2,0-0.3,0-0.5c0-0.7,0-1.4,0-2.1   c0-0.3,0-0.6,0-0.9c0-0.6,0-1.1,0-1.7c0-0.3,0-0.6,0-0.9c0-0.6,0-1.1-0.1-1.7c0-0.3,0-0.6,0-0.9c0-0.7-0.1-1.4-0.2-2.1   c0-0.2,0-0.3,0-0.5c-0.1-0.9-0.2-1.7-0.3-2.6c0-0.2-0.1-0.5-0.1-0.7c-0.1-0.6-0.2-1.2-0.3-1.9c0-0.3-0.1-0.6-0.2-0.9   c-0.1-0.6-0.2-1.1-0.3-1.7c-0.1-0.3-0.1-0.6-0.2-0.9c-0.1-0.6-0.2-1.2-0.4-1.8c-0.1-0.3-0.1-0.5-0.2-0.8c-0.2-0.8-0.4-1.7-0.6-2.5   c-0.8-3-3-5.5-5.8-6.7c-0.4-0.2-0.8-0.3-1.3-0.4c-0.9-0.2-1.8-0.5-2.7-0.7c-0.3-0.1-0.5-0.1-0.8-0.2c-0.6-0.1-1.3-0.3-1.9-0.4   c-0.3-0.1-0.6-0.1-0.9-0.2c-0.6-0.1-1.2-0.2-1.8-0.3c-0.3-0.1-0.7-0.1-1-0.1c-0.6-0.1-1.2-0.2-1.8-0.3c-0.3,0-0.7-0.1-1-0.1   c-0.6-0.1-1.1-0.1-1.7-0.2c-0.4,0-0.7-0.1-1.1-0.1c-0.6,0-1.1-0.1-1.7-0.1c-0.4,0-0.7,0-1.1-0.1c-0.5,0-1.1-0.1-1.6-0.1   c-0.4,0-0.7,0-1.1,0c-0.5,0-1,0-1.5,0c0,0-0.1,0-0.1,0c-1.2,0-2.4,0-3.6,0.1c-0.3,0-0.6,0-0.9,0c-1.1,0.1-2.1,0.1-3.2,0.2   c-0.2,0-0.3,0-0.5,0c-1.2,0.1-2.4,0.3-3.6,0.4c-0.3,0-0.6,0.1-0.9,0.1c-1.1,0.2-2.1,0.3-3.2,0.6c-0.1,0-0.3,0.1-0.4,0.1   c-1.2,0.2-2.4,0.5-3.5,0.8c-0.3,0.1-0.6,0.2-0.9,0.2c-1.1,0.3-2.1,0.6-3.2,0.9c-0.1,0-0.3,0.1-0.4,0.1c-1.2,0.3-2.3,0.7-3.4,1.1   c-0.3,0.1-0.6,0.2-0.9,0.3c-1.1,0.4-2.1,0.8-3.2,1.2c-0.1,0-0.2,0.1-0.3,0.1c-1.1,0.5-2.2,1-3.3,1.5c-0.3,0.1-0.6,0.3-0.8,0.4   c-1,0.5-2.1,1-3.1,1.5c-0.1,0-0.1,0.1-0.2,0.1c-1.1,0.6-2.1,1.2-3.2,1.8c-0.3,0.2-0.5,0.3-0.8,0.5c-1,0.6-2,1.2-3,1.9   c0,0-0.1,0.1-0.1,0.1c-1,0.7-2,1.4-3,2.1c-0.2,0.2-0.5,0.4-0.7,0.5c-1,0.7-1.9,1.5-2.9,2.2c0,0,0,0-0.1,0.1   c-0.4,0.3-0.7,0.6-1.1,0.9c-27.3-12.6-52-31.5-71.3-54.7c-3.5-4.2-9.8-4.8-14.1-1.3c-4.2,3.5-4.8,9.8-1.3,14.1   c19.9,23.8,44.8,43.4,72.5,57.2c-4.8,6.7-8.6,14.1-11.3,22c-68-34.7-111.4-104.9-111.4-181.9v-51.1c0-4.5-3-8.4-7.3-9.6   c-13.9-3.9-26.7-11.4-36.9-21.6c-18-18-26.8-43-24.3-68.1c25.1-2.5,50.1,6.4,68.1,24.3c4.7,4.7,8.9,10,12.4,15.7   c1.8,3,5,4.8,8.5,4.8c3.5,0,6.7-1.8,8.5-4.8c3.5-5.7,7.6-11,12.4-15.7c18-18,43-26.8,68.1-24.3C202.8,104,194,129,176,147   c-10.9,10.9-24.4,18.5-39.3,22.2c-4.5,1.1-7.6,5.1-7.6,9.7v28.2c0,28,22.8,50.8,50.8,50.8h282.4c9.1,0,17.3,4.2,22.6,11.6   C490.1,276.8,491.5,286,488.6,294.7z"/><circle cx="418.2" cy="303.2" r="15.2"/><path d="M294.2,198.4c0,14.6,11.8,26.4,26.4,26.4c14.6,0,26.4-11.8,26.4-26.4c0-14.6-11.8-26.4-26.4-26.4   C306.1,172,294.2,183.8,294.2,198.4z M327,198.4c0,3.5-2.9,6.4-6.4,6.4c-3.5,0-6.4-2.9-6.4-6.4c0-3.5,2.9-6.4,6.4-6.4   C324.1,192,327,194.9,327,198.4z"/><path d="M298.5,106.1c14.6,0,26.4-11.8,26.4-26.4c0-14.6-11.8-26.4-26.4-26.4c-14.6,0-26.4,11.8-26.4,26.4   C272.1,94.2,283.9,106.1,298.5,106.1z M298.5,73.3c3.5,0,6.4,2.9,6.4,6.4s-2.9,6.4-6.4,6.4s-6.4-2.9-6.4-6.4S295,73.3,298.5,73.3z"/><path d="M374.6,177.4c21.2,0,38.4-17.2,38.4-38.4s-17.2-38.4-38.4-38.4s-38.4,17.2-38.4,38.4S353.4,177.4,374.6,177.4z    M374.6,120.6c10.1,0,18.4,8.3,18.4,18.4s-8.3,18.4-18.4,18.4c-10.1,0-18.4-8.3-18.4-18.4S364.5,120.6,374.6,120.6z"/></g><text x="0" y="527" fill="#000000" font-size="5px" font-weight="bold" font-family="'Helvetica Neue', Helvetica, Arial-Unicode, Arial, Sans-serif">Created by Thomas Völker</text><text x="0" y="532" fill="#000000" font-size="5px" font-weight="bold" font-family="'Helvetica Neue', Helvetica, Arial-Unicode, Arial, Sans-serif">from the Noun Project</text></svg>